<svg id="visual" viewBox="0 0 1950 320" width="1950" height="320" xmlns="http://www.w3.org/2000/svg" xmlns:xlink="http://www.w3.org/1999/xlink" version="1.1"><path d="M0 39L177 39L177 23L355 23L355 55L532 55L532 30L709 30L709 55L886 55L886 52L1064 52L1064 68L1241 68L1241 46L1418 46L1418 68L1595 68L1595 27L1773 27L1773 36L1950 36L1950 33L1950 0L1950 0L1773 0L1773 0L1595 0L1595 0L1418 0L1418 0L1241 0L1241 0L1064 0L1064 0L886 0L886 0L709 0L709 0L532 0L532 0L355 0L355 0L177 0L177 0L0 0Z" fill="#1363df"></path><path d="M0 78L177 78L177 59L355 59L355 103L532 103L532 78L709 78L709 97L886 97L886 75L1064 75L1064 100L1241 100L1241 81L1418 81L1418 97L1595 97L1595 81L1773 81L1773 68L1950 68L1950 71L1950 31L1950 34L1773 34L1773 25L1595 25L1595 66L1418 66L1418 44L1241 44L1241 66L1064 66L1064 50L886 50L886 53L709 53L709 28L532 28L532 53L355 53L355 21L177 21L177 37L0 37Z" fill="#0079ea"></path><path d="M0 113L177 113L177 151L355 151L355 171L532 171L532 148L709 148L709 126L886 126L886 139L1064 139L1064 155L1241 155L1241 132L1418 132L1418 145L1595 145L1595 158L1773 158L1773 103L1950 103L1950 139L1950 69L1950 66L1773 66L1773 79L1595 79L1595 95L1418 95L1418 79L1241 79L1241 98L1064 98L1064 73L886 73L886 95L709 95L709 76L532 76L532 101L355 101L355 57L177 57L177 76L0 76Z" fill="#008ef3"></path><path d="M0 209L177 209L177 270L355 270L355 212L532 212L532 238L709 238L709 235L886 235L886 225L1064 225L1064 206L1241 206L1241 247L1418 247L1418 279L1595 279L1595 267L1773 267L1773 167L1950 167L1950 251L1950 137L1950 101L1773 101L1773 156L1595 156L1595 143L1418 143L1418 130L1241 130L1241 153L1064 153L1064 137L886 137L886 124L709 124L709 146L532 146L532 169L355 169L355 149L177 149L177 111L0 111Z" fill="#27a2fa"></path><path d="M0 321L177 321L177 321L355 321L355 321L532 321L532 321L709 321L709 321L886 321L886 321L1064 321L1064 321L1241 321L1241 321L1418 321L1418 321L1595 321L1595 321L1773 321L1773 321L1950 321L1950 321L1950 249L1950 165L1773 165L1773 265L1595 265L1595 277L1418 277L1418 245L1241 245L1241 204L1064 204L1064 223L886 223L886 233L709 233L709 236L532 236L532 210L355 210L355 268L177 268L177 207L0 207Z" fill="#47b5ff"></path></svg>