<svg id="visual" viewBox="0 0 1400 540" width="1400" height="540" xmlns="http://www.w3.org/2000/svg" xmlns:xlink="http://www.w3.org/1999/xlink" version="1.1"><rect x="0" y="0" width="1400" height="540" fill="#3A5BA0"></rect><path d="M0 373L33.3 371C66.7 369 133.3 365 200 363.8C266.7 362.7 333.3 364.3 400 356.7C466.7 349 533.3 332 600 324.5C666.7 317 733.3 319 800 332.7C866.7 346.3 933.3 371.7 1000 381.2C1066.7 390.7 1133.3 384.3 1200 382C1266.7 379.7 1333.3 381.3 1366.7 382.2L1400 383L1400 541L1366.7 541C1333.3 541 1266.7 541 1200 541C1133.3 541 1066.7 541 1000 541C933.3 541 866.7 541 800 541C733.3 541 666.7 541 600 541C533.3 541 466.7 541 400 541C333.3 541 266.7 541 200 541C133.3 541 66.7 541 33.3 541L0 541Z" fill="#1363df"></path><path d="M0 391L33.3 387.8C66.7 384.7 133.3 378.3 200 372.5C266.7 366.7 333.3 361.3 400 361.7C466.7 362 533.3 368 600 371C666.7 374 733.3 374 800 376C866.7 378 933.3 382 1000 388.7C1066.7 395.3 1133.3 404.7 1200 403.2C1266.7 401.7 1333.3 389.3 1366.7 383.2L1400 377L1400 541L1366.7 541C1333.3 541 1266.7 541 1200 541C1133.3 541 1066.7 541 1000 541C933.3 541 866.7 541 800 541C733.3 541 666.7 541 600 541C533.3 541 466.7 541 400 541C333.3 541 266.7 541 200 541C133.3 541 66.7 541 33.3 541L0 541Z" fill="#0079ea"></path><path d="M0 402L33.3 408.3C66.7 414.7 133.3 427.3 200 437C266.7 446.7 333.3 453.3 400 456.7C466.7 460 533.3 460 600 451.3C666.7 442.7 733.3 425.3 800 415C866.7 404.7 933.3 401.3 1000 404.2C1066.7 407 1133.3 416 1200 424.2C1266.7 432.3 1333.3 439.7 1366.7 443.3L1400 447L1400 541L1366.7 541C1333.3 541 1266.7 541 1200 541C1133.3 541 1066.7 541 1000 541C933.3 541 866.7 541 800 541C733.3 541 666.7 541 600 541C533.3 541 466.7 541 400 541C333.3 541 266.7 541 200 541C133.3 541 66.7 541 33.3 541L0 541Z" fill="#008ef3"></path><path d="M0 436L33.3 438.8C66.7 441.7 133.3 447.3 200 455.2C266.7 463 333.3 473 400 478.5C466.7 484 533.3 485 600 484.7C666.7 484.3 733.3 482.7 800 483C866.7 483.3 933.3 485.7 1000 486C1066.7 486.3 1133.3 484.7 1200 482.2C1266.7 479.7 1333.3 476.3 1366.7 474.7L1400 473L1400 541L1366.7 541C1333.3 541 1266.7 541 1200 541C1133.3 541 1066.7 541 1000 541C933.3 541 866.7 541 800 541C733.3 541 666.7 541 600 541C533.3 541 466.7 541 400 541C333.3 541 266.7 541 200 541C133.3 541 66.7 541 33.3 541L0 541Z" fill="#27a2fa"></path><path d="M0 473L33.3 474.7C66.7 476.3 133.3 479.7 200 480C266.7 480.3 333.3 477.7 400 477.7C466.7 477.7 533.3 480.3 600 482.8C666.7 485.3 733.3 487.7 800 491.7C866.7 495.7 933.3 501.3 1000 500C1066.7 498.7 1133.3 490.3 1200 489.8C1266.7 489.3 1333.3 496.7 1366.7 500.3L1400 504L1400 541L1366.7 541C1333.3 541 1266.7 541 1200 541C1133.3 541 1066.7 541 1000 541C933.3 541 866.7 541 800 541C733.3 541 666.7 541 600 541C533.3 541 466.7 541 400 541C333.3 541 266.7 541 200 541C133.3 541 66.7 541 33.3 541L0 541Z" fill="#47b5ff"></path></svg>