<svg id="visual" viewBox="0 0 1950 320" width="1950" height="320" xmlns="http://www.w3.org/2000/svg" xmlns:xlink="http://www.w3.org/1999/xlink" version="1.1"><path d="M0 87L177 87L177 68L355 68L355 71L532 71L532 68L709 68L709 55L886 55L886 33L1064 33L1064 36L1241 36L1241 55L1418 55L1418 33L1595 33L1595 52L1773 52L1773 62L1950 62L1950 59L1950 0L1950 0L1773 0L1773 0L1595 0L1595 0L1418 0L1418 0L1241 0L1241 0L1064 0L1064 0L886 0L886 0L709 0L709 0L532 0L532 0L355 0L355 0L177 0L177 0L0 0Z" fill="#47b5ff"></path><path d="M0 190L177 190L177 132L355 132L355 123L532 123L532 142L709 142L709 219L886 219L886 158L1064 158L1064 123L1241 123L1241 107L1418 107L1418 190L1595 190L1595 206L1773 206L1773 171L1950 171L1950 174L1950 57L1950 60L1773 60L1773 50L1595 50L1595 31L1418 31L1418 53L1241 53L1241 34L1064 34L1064 31L886 31L886 53L709 53L709 66L532 66L532 69L355 69L355 66L177 66L177 85L0 85Z" fill="#27a2fa"></path><path d="M0 219L177 219L177 183L355 183L355 183L532 183L532 203L709 203L709 251L886 251L886 193L1064 193L1064 177L1241 177L1241 161L1418 161L1418 228L1595 228L1595 244L1773 244L1773 212L1950 212L1950 215L1950 172L1950 169L1773 169L1773 204L1595 204L1595 188L1418 188L1418 105L1241 105L1241 121L1064 121L1064 156L886 156L886 217L709 217L709 140L532 140L532 121L355 121L355 130L177 130L177 188L0 188Z" fill="#008ef3"></path><path d="M0 283L177 283L177 299L355 299L355 283L532 283L532 289L709 289L709 302L886 302L886 289L1064 289L1064 295L1241 295L1241 286L1418 286L1418 283L1595 283L1595 292L1773 292L1773 270L1950 270L1950 295L1950 213L1950 210L1773 210L1773 242L1595 242L1595 226L1418 226L1418 159L1241 159L1241 175L1064 175L1064 191L886 191L886 249L709 249L709 201L532 201L532 181L355 181L355 181L177 181L177 217L0 217Z" fill="#0079ea"></path><path d="M0 321L177 321L177 321L355 321L355 321L532 321L532 321L709 321L709 321L886 321L886 321L1064 321L1064 321L1241 321L1241 321L1418 321L1418 321L1595 321L1595 321L1773 321L1773 321L1950 321L1950 321L1950 293L1950 268L1773 268L1773 290L1595 290L1595 281L1418 281L1418 284L1241 284L1241 293L1064 293L1064 287L886 287L886 300L709 300L709 287L532 287L532 281L355 281L355 297L177 297L177 281L0 281Z" fill="#1363df"></path></svg>