<svg id="visual" viewBox="0 0 960 540" width="960" height="540" 
xmlns="http://www.w3.org/2000/svg" xmlns:xlink="http://www.w3.org/1999/xlink" 
version="1.1"><rect x="0" y="0" width="1000" height="540" fill="#1363DF"></rect><path d="M0 468L137 468L137 450L274 450L274 359L411 359L411 406L549 406L549 409L686 409L686 345L823 345L823 372L960 372L960 461L960 541L960 541L823 541L823 541L686 541L686 541L549 541L549 541L411 541L411 541L274 541L274 541L137 541L137 541L0 541Z" fill="#47B5FF" stroke-linecap="square" stroke-linejoin="miter"></path></svg>